<mxfile host="app.diagrams.net" agent="Mozilla/5.0 (Windows NT 10.0; Win64; x64) AppleWebKit/537.36 (KHTML, like Gecko) Chrome/138.0.0.0 Safari/537.36" version="28.0.4">
  <diagram name="페이지-1" id="EmXCdEsVSDeKN74ZtzoK">
    <mxGraphModel dx="2505" dy="2104" grid="1" gridSize="10" guides="1" tooltips="1" connect="1" arrows="1" fold="1" page="1" pageScale="1" pageWidth="827" pageHeight="1169" math="0" shadow="0">
      <root>
        <mxCell id="0" />
        <mxCell id="1" parent="0" />
        <mxCell id="UtqGVKn5PWs3yvZccebX-42" value="" style="endArrow=classic;html=1;rounded=0;exitX=1;exitY=0;exitDx=0;exitDy=0;entryX=0;entryY=0.25;entryDx=0;entryDy=0;" edge="1" parent="1" source="UtqGVKn5PWs3yvZccebX-59" target="UtqGVKn5PWs3yvZccebX-51">
          <mxGeometry width="50" height="50" relative="1" as="geometry">
            <mxPoint x="199" y="-867" as="sourcePoint" />
            <mxPoint x="719" y="-767" as="targetPoint" />
          </mxGeometry>
        </mxCell>
        <mxCell id="UtqGVKn5PWs3yvZccebX-43" value="" style="endArrow=block;html=1;rounded=0;entryX=0.5;entryY=1;entryDx=0;entryDy=0;exitX=0.5;exitY=0;exitDx=0;exitDy=0;dashed=1;endFill=0;" edge="1" parent="1" source="UtqGVKn5PWs3yvZccebX-44" target="UtqGVKn5PWs3yvZccebX-51">
          <mxGeometry width="50" height="50" relative="1" as="geometry">
            <mxPoint x="289" y="-857" as="sourcePoint" />
            <mxPoint x="574" y="-737" as="targetPoint" />
          </mxGeometry>
        </mxCell>
        <mxCell id="UtqGVKn5PWs3yvZccebX-44" value="GameDiscountServiceImpl" style="swimlane;fontStyle=0;childLayout=stackLayout;horizontal=1;startSize=30;horizontalStack=0;resizeParent=1;resizeParentMax=0;resizeLast=0;collapsible=1;marginBottom=0;whiteSpace=wrap;html=1;container=0;" vertex="1" parent="1">
          <mxGeometry x="544" y="-887" width="320" height="88.06451612903226" as="geometry">
            <mxRectangle x="100" y="80" width="140" height="30" as="alternateBounds" />
          </mxGeometry>
        </mxCell>
        <mxCell id="UtqGVKn5PWs3yvZccebX-45" style="edgeStyle=orthogonalEdgeStyle;rounded=0;orthogonalLoop=1;jettySize=auto;html=1;entryX=0.5;entryY=0;entryDx=0;entryDy=0;" edge="1" parent="1" source="UtqGVKn5PWs3yvZccebX-46" target="UtqGVKn5PWs3yvZccebX-64">
          <mxGeometry relative="1" as="geometry" />
        </mxCell>
        <mxCell id="UtqGVKn5PWs3yvZccebX-46" value="&lt;div&gt;&amp;nbsp; + getDiscountList(page: Long): Map&amp;lt;String, Object&amp;gt;&lt;/div&gt;&lt;div&gt;&amp;nbsp; + checkDiscount(gameId: Long): boolean&lt;/div&gt;&lt;div&gt;&amp;nbsp; + toggleDiscount(vo: GameDiscountVO): String&lt;/div&gt;&lt;div&gt;&amp;nbsp; + groupReservation(vo: GameGroupVO): void&lt;/div&gt;" style="rounded=0;whiteSpace=wrap;html=1;align=left;container=0;" vertex="1" parent="1">
          <mxGeometry x="544" y="-803.13" width="320" height="76.13" as="geometry" />
        </mxCell>
        <mxCell id="UtqGVKn5PWs3yvZccebX-48" value="&amp;nbsp;- gameDiscountMapper: GameDiscountMapper" style="text;strokeColor=none;fillColor=none;align=left;verticalAlign=middle;spacingLeft=4;spacingRight=4;overflow=hidden;points=[[0,0.5],[1,0.5]];portConstraint=eastwest;rotatable=0;whiteSpace=wrap;html=1;container=0;" vertex="1" parent="1">
          <mxGeometry x="544" y="-857" width="320" height="58.06451612903226" as="geometry" />
        </mxCell>
        <mxCell id="UtqGVKn5PWs3yvZccebX-49" value="" style="group" vertex="1" connectable="0" parent="1">
          <mxGeometry x="539" y="-1091.63" width="330" height="164.63" as="geometry" />
        </mxCell>
        <mxCell id="UtqGVKn5PWs3yvZccebX-50" value="&amp;lt;&amp;lt;interface&amp;gt;&amp;gt;&amp;nbsp;&lt;div&gt;GameDiscountService&lt;/div&gt;" style="swimlane;fontStyle=0;childLayout=stackLayout;horizontal=1;startSize=30;horizontalStack=0;resizeParent=1;resizeParentMax=0;resizeLast=0;collapsible=1;marginBottom=0;whiteSpace=wrap;html=1;container=0;" vertex="1" parent="UtqGVKn5PWs3yvZccebX-49">
          <mxGeometry width="330" height="50" as="geometry">
            <mxRectangle x="100" y="80" width="140" height="30" as="alternateBounds" />
          </mxGeometry>
        </mxCell>
        <mxCell id="UtqGVKn5PWs3yvZccebX-51" value="&lt;div&gt;&amp;nbsp; + getDiscountList(page: Long): Map&amp;lt;String, Object&amp;gt;&lt;/div&gt;&lt;div&gt;&amp;nbsp; + checkDiscount(gameId: Long): boolean&lt;/div&gt;&lt;div&gt;&amp;nbsp; + toggleDiscount(vo: GameDiscountVO): String&lt;/div&gt;&lt;div&gt;&amp;nbsp; + groupReservation(vo: GameGroupVO): void&lt;/div&gt;" style="rounded=0;whiteSpace=wrap;html=1;align=left;container=0;" vertex="1" parent="UtqGVKn5PWs3yvZccebX-49">
          <mxGeometry y="50" width="330" height="80" as="geometry" />
        </mxCell>
        <mxCell id="UtqGVKn5PWs3yvZccebX-52" value="" style="endArrow=classic;html=1;rounded=0;exitX=1;exitY=0.5;exitDx=0;exitDy=0;entryX=0;entryY=0.5;entryDx=0;entryDy=0;" edge="1" parent="1" source="UtqGVKn5PWs3yvZccebX-56" target="UtqGVKn5PWs3yvZccebX-65">
          <mxGeometry width="50" height="50" relative="1" as="geometry">
            <mxPoint x="-161" y="-321" as="sourcePoint" />
            <mxPoint x="419" y="-587" as="targetPoint" />
          </mxGeometry>
        </mxCell>
        <mxCell id="UtqGVKn5PWs3yvZccebX-53" value="" style="group" vertex="1" connectable="0" parent="1">
          <mxGeometry x="220" y="-730" width="250" height="271" as="geometry" />
        </mxCell>
        <mxCell id="UtqGVKn5PWs3yvZccebX-54" value="" style="group" vertex="1" connectable="0" parent="UtqGVKn5PWs3yvZccebX-53">
          <mxGeometry width="250" height="250.1538461538462" as="geometry" />
        </mxCell>
        <mxCell id="UtqGVKn5PWs3yvZccebX-55" value="GameDiscountVO" style="swimlane;fontStyle=0;childLayout=stackLayout;horizontal=1;startSize=30;horizontalStack=0;resizeParent=1;resizeParentMax=0;resizeLast=0;collapsible=1;marginBottom=0;whiteSpace=wrap;html=1;container=0;" vertex="1" parent="UtqGVKn5PWs3yvZccebX-54">
          <mxGeometry x="10" y="-1.4175384615384619" width="195.31" height="250.1538461538462" as="geometry">
            <mxRectangle x="100" y="80" width="140" height="30" as="alternateBounds" />
          </mxGeometry>
        </mxCell>
        <mxCell id="UtqGVKn5PWs3yvZccebX-56" value="&lt;div&gt;&amp;nbsp; - Long discountId&lt;/div&gt;&lt;div&gt;&amp;nbsp; - String userName&lt;/div&gt;&lt;div&gt;&amp;nbsp; - Long gameId&lt;/div&gt;&lt;div&gt;&amp;nbsp; - String title&lt;/div&gt;&lt;div&gt;&amp;nbsp; - String backgroundImage&lt;/div&gt;&lt;div&gt;&amp;nbsp; - int price&lt;/div&gt;&lt;div&gt;&amp;nbsp; - int salePrice&lt;/div&gt;&lt;div&gt;&amp;nbsp; - String released&lt;/div&gt;&lt;div&gt;&amp;nbsp; - String esrbRating&lt;/div&gt;&lt;div&gt;&amp;nbsp; - Long discountPercent&lt;/div&gt;&lt;div&gt;&amp;nbsp; - String result&lt;/div&gt;&lt;div&gt;&amp;nbsp; - int countApplicants&lt;/div&gt;&lt;div&gt;&amp;nbsp; - int isActive&lt;/div&gt;&lt;div&gt;&amp;nbsp; - String applicantList&lt;/div&gt;&lt;div&gt;&amp;nbsp; - Timestamp createdAt&lt;/div&gt;" style="text;strokeColor=none;fillColor=none;align=left;verticalAlign=middle;spacingLeft=4;spacingRight=4;overflow=hidden;points=[[0,0.5],[1,0.5]];portConstraint=eastwest;rotatable=0;whiteSpace=wrap;html=1;container=0;" vertex="1" parent="UtqGVKn5PWs3yvZccebX-54">
          <mxGeometry x="10" y="29.851692307692314" width="195.31" height="218.88461538461542" as="geometry" />
        </mxCell>
        <mxCell id="UtqGVKn5PWs3yvZccebX-57" value="" style="rounded=0;whiteSpace=wrap;html=1;align=left;container=0;" vertex="1" parent="UtqGVKn5PWs3yvZccebX-53">
          <mxGeometry x="10" y="248.73630769230772" width="195.31" height="20.846153846153847" as="geometry" />
        </mxCell>
        <mxCell id="UtqGVKn5PWs3yvZccebX-58" value="" style="group" vertex="1" connectable="0" parent="1">
          <mxGeometry x="40" y="-1110" width="360" height="170" as="geometry" />
        </mxCell>
        <mxCell id="UtqGVKn5PWs3yvZccebX-59" value="&lt;div&gt;+ getDiscountList(Long page): ResponseEntity&amp;lt;Boolean&amp;gt;&lt;/div&gt;&lt;div&gt;+ checkDiscount(Long gameId): ResponseEntity&amp;lt;?&amp;gt;&lt;/div&gt;&lt;div&gt;+ discountApply(GameDiscountVO vo): ResponseEntity&amp;lt;?&amp;gt;&lt;/div&gt;&lt;div&gt;+ GroupReservation(GameGroupVO vo): ResponseEntity&amp;lt;?&amp;gt;&lt;/div&gt;" style="rounded=0;whiteSpace=wrap;html=1;align=left;container=0;" vertex="1" parent="UtqGVKn5PWs3yvZccebX-58">
          <mxGeometry y="88.06" width="360" height="81.94" as="geometry" />
        </mxCell>
        <mxCell id="UtqGVKn5PWs3yvZccebX-60" value="GameDiscountController" style="swimlane;fontStyle=0;childLayout=stackLayout;horizontal=1;startSize=30;horizontalStack=0;resizeParent=1;resizeParentMax=0;resizeLast=0;collapsible=1;marginBottom=0;whiteSpace=wrap;html=1;container=0;" vertex="1" parent="UtqGVKn5PWs3yvZccebX-58">
          <mxGeometry width="360" height="88.06" as="geometry">
            <mxRectangle x="100" y="80" width="140" height="30" as="alternateBounds" />
          </mxGeometry>
        </mxCell>
        <mxCell id="UtqGVKn5PWs3yvZccebX-61" value="-GameDiscountService: gameDiscountService" style="text;strokeColor=none;fillColor=none;align=left;verticalAlign=middle;spacingLeft=4;spacingRight=4;overflow=hidden;points=[[0,0.5],[1,0.5]];portConstraint=eastwest;rotatable=0;whiteSpace=wrap;html=1;container=0;" vertex="1" parent="UtqGVKn5PWs3yvZccebX-58">
          <mxGeometry y="30" width="360" height="58.06" as="geometry" />
        </mxCell>
        <mxCell id="UtqGVKn5PWs3yvZccebX-62" style="rounded=0;orthogonalLoop=1;jettySize=auto;html=1;edgeStyle=orthogonalEdgeStyle;" edge="1" parent="1" source="UtqGVKn5PWs3yvZccebX-59" target="UtqGVKn5PWs3yvZccebX-55">
          <mxGeometry relative="1" as="geometry" />
        </mxCell>
        <mxCell id="UtqGVKn5PWs3yvZccebX-63" value="" style="group" vertex="1" connectable="0" parent="1">
          <mxGeometry x="680" y="-653" width="331" height="120" as="geometry" />
        </mxCell>
        <mxCell id="UtqGVKn5PWs3yvZccebX-64" value="&lt;div&gt;&amp;lt;&amp;lt;interface&amp;gt;&amp;gt;&lt;/div&gt;GameDiscountMapper" style="swimlane;fontStyle=0;childLayout=stackLayout;horizontal=1;startSize=30;horizontalStack=0;resizeParent=1;resizeParentMax=0;resizeLast=0;collapsible=1;marginBottom=0;whiteSpace=wrap;html=1;container=0;" vertex="1" parent="UtqGVKn5PWs3yvZccebX-63">
          <mxGeometry width="330.99999999999994" height="100" as="geometry">
            <mxRectangle x="100" y="80" width="140" height="30" as="alternateBounds" />
          </mxGeometry>
        </mxCell>
        <mxCell id="UtqGVKn5PWs3yvZccebX-65" value="&lt;div&gt;&amp;nbsp; + getDiscountGame(page: Map): List&amp;lt;GameDiscountVO&amp;gt;&lt;/div&gt;&lt;div&gt;&amp;nbsp; + checkDiscount(vo: GameDiscountVO): int&lt;/div&gt;&lt;div&gt;&amp;nbsp; + toggleDiscount(vo: GameDiscountVO): String&lt;/div&gt;&lt;div&gt;&amp;nbsp; + groupReservation(vo: GameGroupVO): void&lt;/div&gt;" style="text;strokeColor=none;fillColor=none;align=left;verticalAlign=middle;spacingLeft=4;spacingRight=4;overflow=hidden;points=[[0,0.5],[1,0.5]];portConstraint=eastwest;rotatable=0;whiteSpace=wrap;html=1;container=0;" vertex="1" parent="UtqGVKn5PWs3yvZccebX-63">
          <mxGeometry y="28.639999999999986" width="330.99999999999994" height="71.36" as="geometry" />
        </mxCell>
        <mxCell id="UtqGVKn5PWs3yvZccebX-66" value="" style="rounded=0;whiteSpace=wrap;html=1;align=left;container=0;" vertex="1" parent="UtqGVKn5PWs3yvZccebX-63">
          <mxGeometry y="100" width="330.99999999999994" height="20" as="geometry" />
        </mxCell>
        <mxCell id="UtqGVKn5PWs3yvZccebX-84" value="" style="group" vertex="1" connectable="0" parent="1">
          <mxGeometry x="-20" y="-730" width="250" height="271" as="geometry" />
        </mxCell>
        <mxCell id="UtqGVKn5PWs3yvZccebX-85" value="" style="group" vertex="1" connectable="0" parent="UtqGVKn5PWs3yvZccebX-84">
          <mxGeometry width="250" height="250.1538461538462" as="geometry" />
        </mxCell>
        <mxCell id="UtqGVKn5PWs3yvZccebX-86" value="GameGroupVO" style="swimlane;fontStyle=0;childLayout=stackLayout;horizontal=1;startSize=30;horizontalStack=0;resizeParent=1;resizeParentMax=0;resizeLast=0;collapsible=1;marginBottom=0;whiteSpace=wrap;html=1;container=0;" vertex="1" parent="UtqGVKn5PWs3yvZccebX-85">
          <mxGeometry x="20" width="195.31" height="91.42" as="geometry">
            <mxRectangle x="100" y="80" width="140" height="30" as="alternateBounds" />
          </mxGeometry>
        </mxCell>
        <mxCell id="UtqGVKn5PWs3yvZccebX-87" value="&lt;div&gt;&amp;nbsp; - String userName&lt;/div&gt;&lt;div&gt;&amp;nbsp; - Long gameId&lt;/div&gt;&lt;div&gt;&amp;nbsp; - String result&lt;/div&gt;" style="text;strokeColor=none;fillColor=none;align=left;verticalAlign=middle;spacingLeft=4;spacingRight=4;overflow=hidden;points=[[0,0.5],[1,0.5]];portConstraint=eastwest;rotatable=0;whiteSpace=wrap;html=1;container=0;" vertex="1" parent="UtqGVKn5PWs3yvZccebX-85">
          <mxGeometry x="20" y="31.270000000000003" width="195.31" height="60.15" as="geometry" />
        </mxCell>
        <mxCell id="UtqGVKn5PWs3yvZccebX-88" value="" style="rounded=0;whiteSpace=wrap;html=1;align=left;container=0;" vertex="1" parent="UtqGVKn5PWs3yvZccebX-85">
          <mxGeometry x="20" y="91.41630769230771" width="195.31" height="20.846153846153847" as="geometry" />
        </mxCell>
        <mxCell id="UtqGVKn5PWs3yvZccebX-91" style="edgeStyle=orthogonalEdgeStyle;rounded=0;orthogonalLoop=1;jettySize=auto;html=1;entryX=0.5;entryY=0;entryDx=0;entryDy=0;fontSize=12;startSize=8;endSize=8;" edge="1" parent="1" source="UtqGVKn5PWs3yvZccebX-59" target="UtqGVKn5PWs3yvZccebX-86">
          <mxGeometry relative="1" as="geometry" />
        </mxCell>
        <mxCell id="UtqGVKn5PWs3yvZccebX-93" style="edgeStyle=orthogonalEdgeStyle;rounded=0;orthogonalLoop=1;jettySize=auto;html=1;entryX=0.5;entryY=1;entryDx=0;entryDy=0;fontSize=12;startSize=8;endSize=8;" edge="1" parent="1" source="UtqGVKn5PWs3yvZccebX-88" target="UtqGVKn5PWs3yvZccebX-66">
          <mxGeometry relative="1" as="geometry">
            <Array as="points">
              <mxPoint x="98" y="-400" />
              <mxPoint x="845" y="-400" />
            </Array>
          </mxGeometry>
        </mxCell>
      </root>
    </mxGraphModel>
  </diagram>
</mxfile>
